<?xml version="1.0" standalone="no"?>
<!DOCTYPE svg PUBLIC "-//W3C//DTD SVG 20010904//EN"
 "http://www.w3.org/TR/2001/REC-SVG-20010904/DTD/svg10.dtd">
<svg version="1.0" xmlns="http://www.w3.org/2000/svg"
 width="512.000000pt" height="512.000000pt" viewBox="0 0 512.000000 512.000000"
 preserveAspectRatio="xMidYMid meet">
<metadata>
Created by potrace 1.14, written by Peter Selinger 2001-2017
</metadata>
<g transform="translate(0.000000,512.000000) scale(0.100000,-0.100000)"
fill="#000000" stroke="none">
<path d="M2205 4644 c-651 -64 -1181 -252 -1774 -628 l-43 -28 5 -336 c5 -361
14 -451 67 -712 147 -722 499 -1380 1015 -1896 291 -292 572 -499 946 -698 58
-31 111 -56 117 -56 6 0 62 28 124 61 560 305 980 671 1327 1157 312 438 548
998 636 1508 42 247 47 313 52 644 l5 335 -144 86 c-78 48 -190 112 -248 142
-632 334 -1397 489 -2085 421z m495 -244 c414 -21 751 -94 1130 -243 166 -65
385 -172 515 -253 l80 -50 3 -169 c7 -388 -70 -825 -213 -1214 -281 -764 -833
-1417 -1544 -1825 l-133 -77 -126 72 c-571 325 -1038 802 -1355 1384 -273 503
-425 1108 -415 1654 l3 175 80 48 c112 69 390 206 515 255 366 143 729 224
1095 243 77 4 151 7 165 8 14 1 104 -3 200 -8z"/>
<path d="M2190 4243 c-447 -45 -938 -207 -1350 -445 l-75 -44 1 -189 c3 -500
139 -1024 390 -1505 78 -148 238 -392 360 -545 105 -133 352 -380 489 -491 97
-78 270 -204 280 -204 3 0 5 137 5 304 l0 304 -77 17 c-103 23 -230 68 -326
116 -78 39 -237 137 -237 146 0 6 193 363 216 400 14 22 14 22 115 -47 307
-211 704 -264 851 -113 62 64 75 140 38 212 -40 80 -124 126 -345 191 -483
142 -598 197 -714 344 -86 109 -110 180 -118 351 -10 226 47 386 186 525 93
92 171 138 306 182 l104 33 1 233 0 232 -32 -2 c-18 0 -49 -3 -68 -5z"/>
<path d="M2802 4018 l3 -231 105 -28 c179 -46 332 -113 471 -206 62 -41 67
-47 57 -67 -21 -40 -220 -401 -224 -405 -2 -2 -33 19 -70 47 -74 56 -210 130
-294 161 -236 87 -506 72 -600 -35 -83 -95 -55 -226 63 -294 74 -43 132 -63
387 -137 290 -83 413 -140 522 -242 130 -122 182 -248 182 -446 0 -215 -56
-358 -194 -496 -69 -70 -102 -94 -176 -131 -50 -25 -124 -54 -163 -64 l-71
-18 0 -304 0 -304 28 17 c236 152 562 448 746 680 482 606 744 1323 750 2052
l1 187 -75 44 c-345 199 -732 341 -1111 407 -81 14 -308 45 -331 45 -5 0 -7
-104 -6 -232z"/>
</g>
</svg>
